<svg version="1.1" id="Layer_1" xmlns="http://www.w3.org/2000/svg" xmlns:xlink="http://www.w3.org/1999/xlink" x="0px" y="0px"
	 width="100%" viewBox="0 0 1080 1080" enable-background="new 0 0 1080 1080" xml:space="preserve">
<path fill="#000000" opacity="1.000000" stroke="none" 
	d="
M744.000000,1081.000000 
	C496.028564,1081.000000 248.557114,1081.000000 1.042840,1081.000000 
	C1.042840,721.070129 1.042840,361.140198 1.042840,1.105153 
	C360.888306,1.105153 720.776672,1.105153 1080.832520,1.105153 
	C1080.832520,360.999939 1080.832520,720.999939 1080.832520,1081.000000 
	C968.806396,1081.000000 856.653198,1081.000000 744.000000,1081.000000 
M738.721863,703.946594 
	C750.047485,696.986755 761.394165,690.060669 772.691956,683.055969 
	C781.173035,677.797607 789.591492,672.438110 798.674805,666.813171 
	C806.680908,661.908325 814.736816,657.082520 822.680054,652.077820 
	C831.858093,646.294983 841.432800,640.983032 849.910706,634.294617 
	C857.443481,628.351746 863.992737,621.060730 870.471863,613.908020 
	C879.960571,603.432800 885.759705,590.696716 889.835876,577.404419 
	C894.141785,563.363342 896.410217,548.823792 894.954529,534.026245 
	C894.139038,525.735718 893.644348,517.262207 891.464600,509.292542 
	C888.130676,497.102600 883.437256,485.435272 876.208008,474.693085 
	C866.131165,459.719360 853.381470,447.827393 838.412720,438.156372 
	C828.482849,431.740814 818.262817,425.771576 808.127747,419.677307 
	C801.471436,415.674774 794.734985,411.805511 787.746094,407.249786 
	C783.832520,404.814240 779.922302,402.373169 776.004639,399.944214 
	C765.858521,393.653625 755.743225,387.312317 745.547729,381.102814 
	C739.802002,377.603394 733.921936,374.324615 727.800232,370.313843 
	C718.427490,364.823364 708.945068,359.510437 699.708252,353.800110 
	C686.450378,345.603790 673.401306,337.070557 660.198303,328.784302 
	C656.254211,326.308929 652.093567,324.178467 647.742981,321.262177 
	C633.841980,312.802216 619.940918,304.342285 605.673706,295.276031 
	C595.199280,288.842987 584.737305,282.389587 574.247314,275.981964 
	C560.520813,267.597351 546.772095,259.248962 532.656738,250.290985 
	C531.377502,249.629654 530.051880,249.044296 528.826355,248.295059 
	C517.874573,241.599472 506.940460,234.875000 495.370361,227.827652 
	C489.173309,223.681793 483.097015,219.340103 476.754700,215.429871 
	C462.503632,206.643631 448.234192,197.874695 433.738342,189.503799 
	C427.459869,185.878189 420.603729,183.252899 413.343781,179.816437 
	C404.567993,176.673615 395.705383,173.950912 386.241486,173.991470 
	C379.217255,174.021576 372.171082,173.674255 365.176697,174.134247 
	C361.062653,174.404831 357.030762,175.924515 352.125183,176.961868 
	C350.477661,177.101181 348.713562,176.905396 347.200684,177.431732 
	C332.352997,182.597488 318.782593,190.065414 306.996521,200.538773 
	C293.148346,212.844482 283.174744,227.907486 276.507904,245.094437 
	C270.814178,259.772766 267.891083,275.007446 267.955200,290.859619 
	C268.112823,329.835205 268.006897,368.811890 268.006927,407.788116 
	C268.006927,409.737000 268.006897,411.685883 268.006897,414.868164 
	C270.446472,413.604950 272.189758,413.131653 273.336670,412.034790 
	C278.556732,407.042358 283.398315,401.640289 288.762024,396.814575 
	C303.545990,383.513336 318.690369,370.627808 336.675842,361.711029 
	C342.140839,359.001617 344.413086,355.463104 344.196564,348.980042 
	C343.635376,332.175690 344.144806,315.338715 343.962646,298.517578 
	C343.829956,286.266815 345.624542,274.725739 354.639435,264.795532 
	C359.915680,261.546326 364.815247,257.014343 370.551025,255.330109 
	C380.712067,252.346481 390.004120,256.334381 398.622681,262.036713 
	C403.180786,265.052490 408.161469,267.429657 413.266754,270.723755 
	C413.589874,271.296356 413.767639,272.110107 414.257812,272.405609 
	C422.403564,277.315704 430.605835,282.131958 438.760284,287.027740 
	C449.168671,293.276733 459.554138,299.564056 469.933258,305.861511 
	C478.287354,310.930298 486.617432,316.038635 495.329987,321.703613 
	C507.539276,329.170929 519.748535,336.638214 532.356018,344.696136 
	C533.002197,344.839600 533.750549,344.819824 534.279236,345.150909 
	C543.159485,350.710999 551.990356,356.349945 560.877197,361.899261 
	C570.045166,367.624054 579.227844,373.326721 588.469238,378.931763 
	C594.236572,382.429840 600.124512,385.729248 606.267334,389.732025 
	C608.053467,390.855682 609.817017,392.017212 611.629395,393.096832 
	C623.400879,400.108948 635.182983,407.103210 647.267334,414.723328 
	C647.613037,415.081573 647.902405,415.530853 648.312622,415.784790 
	C660.264099,423.181976 672.197693,430.608856 684.197021,437.927765 
	C698.436401,446.612946 712.734131,455.202576 727.644043,464.147064 
	C736.678406,469.772949 745.696655,475.424927 754.751404,481.017914 
	C765.487610,487.649536 776.255310,494.230377 787.723938,500.979980 
	C794.061218,505.298431 800.623352,509.325134 806.686401,513.999390 
	C817.482910,522.322815 822.248108,539.241516 817.580627,551.858154 
	C813.805420,562.063049 806.213745,568.892944 796.320618,574.242432 
	C795.480347,575.045776 794.753845,576.037598 793.782532,576.623901 
	C780.606812,584.577271 767.345093,592.389099 754.219788,600.424133 
	C748.331055,604.029114 742.698792,608.052979 736.208923,611.973755 
	C735.318909,612.303101 734.339539,612.490234 733.552979,612.984314 
	C726.738281,617.265015 719.995728,621.661194 713.158813,625.905640 
	C703.808716,631.710205 694.394775,637.411865 684.286560,643.046631 
	C682.866394,644.023438 681.479797,645.053833 680.020630,645.968384 
	C670.513794,651.926575 661.034119,657.929688 651.461121,663.779968 
	C642.982727,668.961487 634.329529,673.858093 625.875061,679.077332 
	C618.497925,683.631409 611.290283,688.460022 603.325867,693.266357 
	C595.742737,697.842773 588.109192,702.338074 580.591003,707.018738 
	C573.292542,711.562622 566.112549,716.296631 558.250000,721.239685 
	C530.798279,738.143982 503.346527,755.048340 475.190063,772.020508 
	C465.979279,777.667419 456.732605,783.256958 447.574432,788.987976 
	C443.603821,791.472656 439.815460,794.248718 435.202698,796.970276 
	C430.014984,799.934387 424.801605,802.854614 419.644867,805.871643 
	C408.889984,812.164062 398.208649,818.583435 387.405151,824.790649 
	C383.390472,827.097229 378.509888,828.246826 375.097748,831.175110 
	C369.053070,836.362549 363.770172,842.450745 358.274292,848.262085 
	C346.546112,860.663513 334.858307,873.103455 323.214539,885.584167 
	C319.831268,889.210632 320.129913,890.276672 324.580017,892.856506 
	C334.406036,898.552856 344.700836,903.109436 355.975220,904.937012 
	C363.570496,906.168213 371.262909,907.780823 378.879242,907.625183 
	C386.468445,907.469971 394.022156,905.351868 401.581970,904.039795 
	C414.590820,901.781860 426.172363,896.174194 437.713165,888.920532 
	C442.407349,885.962341 447.102631,883.005981 451.795471,880.045654 
	C460.209412,874.737915 468.621857,869.427795 477.760956,863.988647 
	C486.850647,858.501038 495.978516,853.075500 505.020538,847.510437 
	C516.529419,840.427002 527.995117,833.272339 539.428650,826.067810 
	C546.682312,821.497192 553.843445,816.779663 561.767639,811.994446 
	C570.049011,807.033813 578.384888,802.161377 586.593811,797.083618 
	C592.828247,793.227295 598.901184,789.109863 605.781494,785.012268 
	C607.874023,783.825317 609.997498,782.689331 612.053650,781.442444 
	C621.070923,775.974731 630.051453,770.446167 639.078674,764.994934 
	C647.546814,759.881226 656.137451,754.965881 664.523499,749.722107 
	C671.476562,745.374329 678.210144,740.675415 685.775879,736.017273 
	C686.667419,735.685120 687.646179,735.492554 688.436523,734.998474 
	C694.267151,731.353394 700.046082,727.625732 705.868286,723.966980 
	C716.570679,717.241455 727.291687,710.545532 738.721863,703.946594 
M429.652710,666.808411 
	C434.479065,662.109680 439.483704,657.578613 444.092987,652.675842 
	C452.536224,643.695007 460.919678,634.644775 468.976685,625.319946 
	C472.752655,620.949829 475.711090,615.873352 479.762909,610.971802 
	C480.343201,610.077393 480.809540,609.078369 481.520752,608.304260 
	C493.462097,595.307861 500.936340,579.465393 508.655426,563.972961 
	C513.406860,554.436707 516.311768,543.812195 518.846130,533.384766 
	C521.620483,521.970032 524.137329,510.278503 524.749817,498.601807 
	C525.717102,480.160339 523.502930,461.910461 518.245422,443.968414 
	C512.878540,425.653198 504.895905,408.898956 492.490662,394.431061 
	C488.524139,389.804993 483.552002,386.041199 478.967346,381.185303 
	C464.059235,368.060181 446.502960,360.834839 426.473175,357.229034 
	C418.515717,357.151703 410.552673,357.237457 402.601990,356.963470 
	C385.545654,356.375732 369.639771,361.068787 353.306549,367.295471 
	C348.160614,369.758789 342.573334,371.588989 337.954803,374.808777 
	C325.967926,383.165314 314.029785,391.678101 302.793304,400.997925 
	C293.433868,408.760773 285.020508,417.678955 276.334564,426.234131 
	C270.327362,432.150940 267.569733,438.897522 267.751923,447.938599 
	C268.403015,480.249420 267.917908,512.581665 268.023956,544.905273 
	C268.306976,631.161011 268.535858,717.417603 269.223389,803.670349 
	C269.291199,812.175049 271.343597,821.036804 274.311279,829.052979 
	C278.202759,839.564331 283.351837,849.731689 289.017517,859.429138 
	C294.267426,868.414856 300.794373,876.698425 310.745087,882.335571 
	C315.802765,876.744934 320.661438,871.207642 325.699646,865.838806 
	C337.281586,853.496887 348.834839,841.123596 360.653931,829.011169 
	C364.306274,825.268250 363.641418,822.631409 360.197510,820.378662 
	C347.978058,812.385864 344.219574,800.632446 344.050446,787.100098 
	C343.865173,772.273376 344.198822,757.438660 343.896515,742.615784 
	C343.801178,737.941589 344.849335,734.885620 349.276276,732.761292 
	C351.842285,731.529907 353.805267,729.041870 356.734924,726.986145 
	C357.043213,726.881897 357.409363,726.851807 357.651550,726.662903 
	C373.083374,714.621155 388.721344,702.829956 403.845123,690.412537 
	C412.667419,683.169128 420.665680,674.922058 429.652710,666.808411 
z"/>
<path fill="#AB2424" opacity="1.000000" stroke="none" 
	d="
M356.039581,727.119324 
	C353.805267,729.041870 351.842285,731.529907 349.276276,732.761292 
	C344.849335,734.885620 343.801178,737.941589 343.896515,742.615784 
	C344.198822,757.438660 343.865173,772.273376 344.050446,787.100098 
	C344.219574,800.632446 347.978058,812.385864 360.197510,820.378662 
	C363.641418,822.631409 364.306274,825.268250 360.653931,829.011169 
	C348.834839,841.123596 337.281586,853.496887 325.699646,865.838806 
	C320.661438,871.207642 315.802765,876.744934 310.745087,882.335571 
	C300.794373,876.698425 294.267426,868.414856 289.017517,859.429138 
	C283.351837,849.731689 278.202759,839.564331 274.311279,829.052979 
	C271.343597,821.036804 269.291199,812.175049 269.223389,803.670349 
	C268.535858,717.417603 268.306976,631.161011 268.023956,544.905273 
	C267.917908,512.581665 268.403015,480.249420 267.751923,447.938599 
	C267.569733,438.897522 270.327362,432.150940 276.334564,426.234131 
	C285.020508,417.678955 293.433868,408.760773 302.793304,400.997925 
	C314.029785,391.678101 325.967926,383.165314 337.954803,374.808777 
	C342.573334,371.588989 348.160614,369.758789 353.656250,367.688873 
	C354.003967,379.053741 353.947998,390.025513 354.013153,400.996552 
	C354.101959,415.951263 354.283142,430.905396 354.237122,446.121216 
	C353.418121,446.904724 352.832336,447.497803 352.148041,447.937592 
	C347.061523,451.206635 343.777069,454.787018 343.815857,461.878265 
	C344.150421,523.015015 344.008240,584.154419 344.008270,645.293030 
	C344.008270,647.203674 344.008270,649.114380 344.008270,651.921265 
	C348.216736,648.572083 351.613678,645.868713 355.107025,643.561340 
	C355.468506,646.756226 355.955688,649.554565 355.963928,652.354309 
	C356.037262,677.275818 356.025970,702.197632 356.039581,727.119324 
z"/>
<path fill="#DC5555" opacity="1.000000" stroke="none" 
	d="
M797.008484,574.164307 
	C806.213745,568.892944 813.805420,562.063049 817.580627,551.858154 
	C822.248108,539.241516 817.482910,522.322815 806.686401,513.999390 
	C800.623352,509.325134 794.061218,505.298431 787.463318,500.510925 
	C787.468445,497.242035 787.958252,494.442719 787.965149,491.642242 
	C788.033813,463.720490 788.022888,435.798492 788.034424,407.876587 
	C794.734985,411.805511 801.471436,415.674774 808.127747,419.677307 
	C818.262817,425.771576 828.482849,431.740814 838.412720,438.156372 
	C853.381470,447.827393 866.131165,459.719360 876.208008,474.693085 
	C883.437256,485.435272 888.130676,497.102600 891.464600,509.292542 
	C893.644348,517.262207 894.139038,525.735718 894.954529,534.026245 
	C896.410217,548.823792 894.141785,563.363342 889.835876,577.404419 
	C885.759705,590.696716 879.960571,603.432800 870.471863,613.908020 
	C863.992737,621.060730 857.443481,628.351746 849.910706,634.294617 
	C841.432800,640.983032 831.858093,646.294983 822.680054,652.077820 
	C814.736816,657.082520 806.680908,661.908325 798.349121,666.491821 
	C798.014771,653.395386 798.124084,640.618835 797.969116,627.845459 
	C797.752075,609.950439 797.338135,592.057922 797.008484,574.164307 
z"/>
<path fill="#AB2424" opacity="1.000000" stroke="none" 
	d="
M354.039490,265.114502 
	C345.624542,274.725739 343.829956,286.266815 343.962646,298.517578 
	C344.144806,315.338715 343.635376,332.175690 344.196564,348.980042 
	C344.413086,355.463104 342.140839,359.001617 336.675842,361.711029 
	C318.690369,370.627808 303.545990,383.513336 288.762024,396.814575 
	C283.398315,401.640289 278.556732,407.042358 273.336670,412.034790 
	C272.189758,413.131653 270.446472,413.604950 268.006897,414.868164 
	C268.006897,411.685883 268.006927,409.737000 268.006927,407.788116 
	C268.006897,368.811890 268.112823,329.835205 267.955200,290.859619 
	C267.891083,275.007446 270.814178,259.772766 276.507904,245.094437 
	C283.174744,227.907486 293.148346,212.844482 306.996521,200.538773 
	C318.782593,190.065414 332.352997,182.597488 347.200684,177.431732 
	C348.713562,176.905396 350.477661,177.101181 352.550629,177.398499 
	C352.984467,202.629715 352.944000,227.424484 353.047668,252.218674 
	C353.065613,256.518616 353.693390,260.815948 354.039490,265.114502 
z"/>
<path fill="#B73030" opacity="1.000000" stroke="none" 
	d="
M427.032532,357.873932 
	C446.502960,360.834839 464.059235,368.060181 478.996460,382.010254 
	C479.030396,458.929169 479.035248,535.023071 479.040039,611.117004 
	C475.711090,615.873352 472.752655,620.949829 468.976685,625.319946 
	C460.919678,634.644775 452.536224,643.695007 444.092987,652.675842 
	C439.483704,657.578613 434.479065,662.109680 429.337158,666.490601 
	C429.013855,637.773804 429.073761,609.374451 428.908539,580.976440 
	C428.888947,577.607544 427.638519,574.245789 427.112030,570.573059 
	C430.678680,564.948669 433.956238,559.538696 437.530731,554.332642 
	C448.187408,538.811829 455.789154,522.184021 458.173035,503.235992 
	C460.684418,483.274567 458.446838,464.304932 447.884674,446.925018 
	C442.769012,438.507202 435.355682,432.380066 426.007629,428.375122 
	C426.348114,404.569275 426.690338,381.221588 427.032532,357.873932 
z"/>
<path fill="#BB3434" opacity="1.000000" stroke="none" 
	d="
M561.046082,812.127991 
	C553.843445,816.779663 546.682312,821.497192 539.428650,826.067810 
	C527.995117,833.272339 516.529419,840.427002 505.020538,847.510437 
	C495.978516,853.075500 486.850647,858.501038 477.391815,863.577271 
	C477.015076,835.192139 477.034729,807.218262 476.952026,779.244690 
	C476.944855,776.812988 476.263184,774.383301 475.894836,771.952637 
	C503.346527,755.048340 530.798279,738.143982 558.766235,721.459473 
	C559.518372,723.971619 559.954956,726.263672 559.959412,728.556458 
	C560.008728,753.636963 559.957764,778.717712 560.037170,803.798096 
	C560.045959,806.575745 560.694336,809.351379 561.046082,812.127991 
z"/>
<path fill="#B02929" opacity="1.000000" stroke="none" 
	d="
M437.007111,888.837708 
	C426.172363,896.174194 414.590820,901.781860 401.581970,904.039795 
	C394.022156,905.351868 386.468445,907.469971 378.879242,907.625183 
	C371.262909,907.780823 363.570496,906.168213 355.975220,904.937012 
	C344.700836,903.109436 334.406036,898.552856 324.580017,892.856506 
	C320.129913,890.276672 319.831268,889.210632 323.214539,885.584167 
	C334.858307,873.103455 346.546112,860.663513 358.274292,848.262085 
	C363.770172,842.450745 369.053070,836.362549 375.097748,831.175110 
	C378.509888,828.246826 383.390472,827.097229 387.405151,824.790649 
	C398.208649,818.583435 408.889984,812.164062 419.644867,805.871643 
	C424.801605,802.854614 430.014984,799.934387 435.724976,797.326904 
	C436.497253,800.314087 436.959320,802.944275 436.964630,805.575378 
	C437.020660,833.329407 437.003845,861.083557 437.007111,888.837708 
z"/>
<path fill="#B73030" opacity="1.000000" stroke="none" 
	d="
M414.010010,180.173233 
	C420.603729,183.252899 427.459869,185.878189 433.738342,189.503799 
	C448.234192,197.874695 462.503632,206.643631 476.754700,215.429871 
	C483.097015,219.340103 489.173309,223.681793 495.586823,228.389008 
	C495.534729,231.750092 495.039795,234.549255 495.032684,237.349670 
	C494.961792,265.276123 494.971313,293.202820 494.958160,321.129425 
	C486.617432,316.038635 478.287354,310.930298 469.933258,305.861511 
	C459.554138,299.564056 449.168671,293.276733 438.760284,287.027740 
	C430.605835,282.131958 422.403564,277.315704 414.257812,272.405609 
	C413.767639,272.110107 413.589874,271.296356 413.261292,270.014954 
	C413.505066,266.842529 413.966095,264.379272 413.970947,261.915131 
	C414.024811,234.667908 414.007812,207.420547 414.010010,180.173233 
z"/>
<path fill="#C94242" opacity="1.000000" stroke="none" 
	d="
M604.007812,693.167419 
	C611.290283,688.460022 618.497925,683.631409 625.875061,679.077332 
	C634.329529,673.858093 642.982727,668.961487 651.461121,663.779968 
	C661.034119,657.929688 670.513794,651.926575 680.020630,645.968384 
	C681.479797,645.053833 682.866394,644.023438 684.643860,643.560730 
	C685.014404,674.760559 685.027649,705.446289 685.040894,736.132019 
	C678.210144,740.675415 671.476562,745.374329 664.523499,749.722107 
	C656.137451,754.965881 647.546814,759.881226 639.078674,764.994934 
	C630.051453,770.446167 621.070923,775.974731 612.053650,781.442444 
	C609.997498,782.689331 607.874023,783.825317 605.263611,784.664429 
	C604.497375,781.851990 604.037292,779.387695 604.033020,776.922607 
	C603.984375,749.004333 604.005432,721.085815 604.007812,693.167419 
z"/>
<path fill="#D14A4A" opacity="1.000000" stroke="none" 
	d="
M727.006531,463.833618 
	C712.734131,455.202576 698.436401,446.612946 684.197021,437.927765 
	C672.197693,430.608856 660.264099,423.181976 648.312622,415.784790 
	C647.902405,415.530853 647.613037,415.081573 647.123169,413.937988 
	C646.988647,385.860565 646.965454,358.568451 647.052795,331.276642 
	C647.062805,328.146729 647.690735,325.018829 648.032166,321.889984 
	C652.093567,324.178467 656.254211,326.308929 660.198303,328.784302 
	C673.401306,337.070557 686.450378,345.603790 699.708252,353.800110 
	C708.945068,359.510437 718.427490,364.823364 727.751221,370.996704 
	C727.468140,373.974182 727.034058,376.268524 727.030457,378.563538 
	C726.986084,406.986816 727.004395,435.410248 727.006531,463.833618 
z"/>
<path fill="#BB3434" opacity="1.000000" stroke="none" 
	d="
M479.401489,611.044434 
	C479.035248,535.023071 479.030396,458.929169 479.032776,382.359070 
	C483.552002,386.041199 488.524139,389.804993 492.490662,394.431061 
	C504.895905,408.898956 512.878540,425.653198 518.245422,443.968414 
	C523.502930,461.910461 525.717102,480.160339 524.749817,498.601807 
	C524.137329,510.278503 521.620483,521.970032 518.846130,533.384766 
	C516.311768,543.812195 513.406860,554.436707 508.655426,563.972961 
	C500.936340,579.465393 493.462097,595.307861 481.520752,608.304260 
	C480.809540,609.078369 480.343201,610.077393 479.401489,611.044434 
z"/>
<path fill="#C43D3D" opacity="1.000000" stroke="none" 
	d="
M533.032959,250.885010 
	C546.772095,259.248962 560.520813,267.597351 574.247314,275.981964 
	C584.737305,282.389587 595.199280,288.842987 605.849609,296.055359 
	C606.003052,327.595734 605.980713,358.356750 605.958313,389.117798 
	C600.124512,385.729248 594.236572,382.429840 588.469238,378.931763 
	C579.227844,373.326721 570.045166,367.624054 560.877197,361.899261 
	C551.990356,356.349945 543.159485,350.710999 534.279236,345.150909 
	C533.750549,344.819824 533.002197,344.839600 532.165710,343.925323 
	C531.985413,315.526947 531.962708,287.899261 532.050293,260.271942 
	C532.060181,257.141937 532.690430,254.013931 533.032959,250.885010 
z"/>
<path fill="#B02929" opacity="1.000000" stroke="none" 
	d="
M426.958649,570.880737 
	C427.638519,574.245789 428.888947,577.607544 428.908539,580.976440 
	C429.073761,609.374451 429.013855,637.773804 429.028168,666.649658 
	C420.665680,674.922058 412.667419,683.169128 403.845123,690.412537 
	C388.721344,702.829956 373.083374,714.621155 357.651550,726.662903 
	C357.409363,726.851807 357.043213,726.881897 356.387268,727.052734 
	C356.025970,702.197632 356.037262,677.275818 355.963928,652.354309 
	C355.955688,649.554565 355.468506,646.756226 355.401215,643.370972 
	C366.127655,633.179443 377.103149,624.013245 387.076294,613.862244 
	C400.768341,599.926086 413.700745,585.243469 426.958649,570.880737 
z"/>
<path fill="#D64F4F" opacity="1.000000" stroke="none" 
	d="
M727.325317,463.990356 
	C727.004395,435.410248 726.986084,406.986816 727.030457,378.563538 
	C727.034058,376.268524 727.468140,373.974182 727.902222,371.312988 
	C733.921936,374.324615 739.802002,377.603394 745.547729,381.102814 
	C755.743225,387.312317 765.858521,393.653625 776.004639,399.944214 
	C779.922302,402.373169 783.832520,404.814240 787.890259,407.563171 
	C788.022888,435.798492 788.033813,463.720490 787.965149,491.642242 
	C787.958252,494.442719 787.468445,497.242035 787.106018,500.437561 
	C776.255310,494.230377 765.487610,487.649536 754.751404,481.017914 
	C745.696655,475.424927 736.678406,469.772949 727.325317,463.990356 
z"/>
<path fill="#D64F4F" opacity="1.000000" stroke="none" 
	d="
M796.664551,574.203369 
	C797.338135,592.057922 797.752075,609.950439 797.969116,627.845459 
	C798.124084,640.618835 798.014771,653.395386 798.030640,666.647095 
	C789.591492,672.438110 781.173035,677.797607 772.691956,683.055969 
	C761.394165,690.060669 750.047485,696.986755 738.361816,703.433594 
	C738.000305,675.352783 738.028625,647.784790 737.951660,620.217102 
	C737.943848,617.439392 737.299255,614.663513 736.950134,611.886780 
	C742.698792,608.052979 748.331055,604.029114 754.219788,600.424133 
	C767.345093,592.389099 780.606812,584.577271 793.782532,576.623901 
	C794.753845,576.037598 795.480347,575.045776 796.664551,574.203369 
z"/>
<path fill="#B02929" opacity="1.000000" stroke="none" 
	d="
M426.752869,357.551483 
	C426.690338,381.221588 426.348114,404.569275 425.640808,428.302979 
	C418.011200,424.968933 410.164551,425.979218 402.484009,426.050873 
	C392.317627,426.145630 382.973511,429.470734 374.181519,434.327545 
	C367.508698,438.013763 361.004150,442.004517 354.424744,445.859802 
	C354.283142,430.905396 354.101959,415.951263 354.013153,400.996552 
	C353.947998,390.025513 354.003967,379.053741 354.007629,367.624420 
	C369.639771,361.068787 385.545654,356.375732 402.601990,356.963470 
	C410.552673,357.237457 418.515717,357.151703 426.752869,357.551483 
z"/>
<path fill="#B02929" opacity="1.000000" stroke="none" 
	d="
M413.676880,179.994843 
	C414.007812,207.420547 414.024811,234.667908 413.970947,261.915131 
	C413.966095,264.379272 413.505066,266.842529 413.103607,269.700653 
	C408.161469,267.429657 403.180786,265.052490 398.622681,262.036713 
	C390.004120,256.334381 380.712067,252.346481 370.551025,255.330109 
	C364.815247,257.014343 359.915680,261.546326 354.339478,264.955017 
	C353.693390,260.815948 353.065613,256.518616 353.047668,252.218674 
	C352.944000,227.424484 352.984467,202.629715 352.968994,177.358765 
	C357.030762,175.924515 361.062653,174.404831 365.176697,174.134247 
	C372.171082,173.674255 379.217255,174.021576 386.241486,173.991470 
	C395.705383,173.950912 404.567993,176.673615 413.676880,179.994843 
z"/>
<path fill="#D14A4A" opacity="1.000000" stroke="none" 
	d="
M736.579529,611.930298 
	C737.299255,614.663513 737.943848,617.439392 737.951660,620.217102 
	C738.028625,647.784790 738.000305,675.352783 738.003296,703.378967 
	C727.291687,710.545532 716.570679,717.241455 705.868286,723.966980 
	C700.046082,727.625732 694.267151,731.353394 688.436523,734.998474 
	C687.646179,735.492554 686.667419,735.685120 685.408386,736.074646 
	C685.027649,705.446289 685.014404,674.760559 685.004639,643.616211 
	C694.394775,637.411865 703.808716,631.710205 713.158813,625.905640 
	C719.995728,621.661194 726.738281,617.265015 733.552979,612.984314 
	C734.339539,612.490234 735.318909,612.303101 736.579529,611.930298 
z"/>
<path fill="#C43D3D" opacity="1.000000" stroke="none" 
	d="
M603.666870,693.216919 
	C604.005432,721.085815 603.984375,749.004333 604.033020,776.922607 
	C604.037292,779.387695 604.497375,781.851990 604.895874,784.712585 
	C598.901184,789.109863 592.828247,793.227295 586.593811,797.083618 
	C578.384888,802.161377 570.049011,807.033813 561.406860,812.061218 
	C560.694336,809.351379 560.045959,806.575745 560.037170,803.798096 
	C559.957764,778.717712 560.008728,753.636963 559.959412,728.556458 
	C559.954956,726.263672 559.518372,723.971619 559.081482,721.313232 
	C566.112549,716.296631 573.292542,711.562622 580.591003,707.018738 
	C588.109192,702.338074 595.742737,697.842773 603.666870,693.216919 
z"/>
<path fill="#C94242" opacity="1.000000" stroke="none" 
	d="
M606.112793,389.424927 
	C605.980713,358.356750 606.003052,327.595734 606.032715,296.358521 
	C619.940918,304.342285 633.841980,312.802216 647.887573,321.576080 
	C647.690735,325.018829 647.062805,328.146729 647.052795,331.276642 
	C646.965454,358.568451 646.988647,385.860565 646.970337,413.627991 
	C635.182983,407.103210 623.400879,400.108948 611.629395,393.096832 
	C609.817017,392.017212 608.053467,390.855682 606.112793,389.424927 
z"/>
<path fill="#B73030" opacity="1.000000" stroke="none" 
	d="
M437.360138,888.879150 
	C437.003845,861.083557 437.020660,833.329407 436.964630,805.575378 
	C436.959320,802.944275 436.497253,800.314087 436.095764,797.287964 
	C439.815460,794.248718 443.603821,791.472656 447.574432,788.987976 
	C456.732605,783.256958 465.979279,777.667419 475.542450,771.986572 
	C476.263184,774.383301 476.944855,776.812988 476.952026,779.244690 
	C477.034729,807.218262 477.015076,835.192139 477.028778,863.642212 
	C468.621857,869.427795 460.209412,874.737915 451.795471,880.045654 
	C447.102631,883.005981 442.407349,885.962341 437.360138,888.879150 
z"/>
<path fill="#BB3434" opacity="1.000000" stroke="none" 
	d="
M532.844849,250.587997 
	C532.690430,254.013931 532.060181,257.141937 532.050293,260.271942 
	C531.962708,287.899261 531.985413,315.526947 531.966614,343.630005 
	C519.748535,336.638214 507.539276,329.170929 495.144073,321.416504 
	C494.971313,293.202820 494.961792,265.276123 495.032684,237.349670 
	C495.039795,234.549255 495.534729,231.750092 495.902222,228.554688 
	C506.940460,234.875000 517.874573,241.599472 528.826355,248.295059 
	C530.051880,249.044296 531.377502,249.629654 532.844849,250.587997 
z"/>
<path fill="#000000" opacity="1.000000" stroke="none" 
	d="
M354.237152,446.121216 
	C361.004150,442.004517 367.508698,438.013763 374.181519,434.327545 
	C382.973511,429.470734 392.317627,426.145630 402.484009,426.050873 
	C410.164551,425.979218 418.011200,424.968933 425.642487,428.761169 
	C435.355682,432.380066 442.769012,438.507202 447.884674,446.925018 
	C458.446838,464.304932 460.684418,483.274567 458.173035,503.235992 
	C455.789154,522.184021 448.187408,538.811829 437.530731,554.332642 
	C433.956238,559.538696 430.678680,564.948669 427.112030,570.573059 
	C413.700745,585.243469 400.768341,599.926086 387.076294,613.862244 
	C377.103149,624.013245 366.127655,633.179443 355.304810,642.975037 
	C351.613678,645.868713 348.216736,648.572083 344.008270,651.921265 
	C344.008270,649.114380 344.008270,647.203674 344.008270,645.293030 
	C344.008240,584.154419 344.150421,523.015015 343.815857,461.878265 
	C343.777069,454.787018 347.061523,451.206635 352.148041,447.937592 
	C352.832336,447.497803 353.418121,446.904724 354.237152,446.121216 
z"/>
</svg>